<svg xmlns="http://www.w3.org/2000/svg" viewBox="0 0 320 180" role="img" aria-label="At a glance">
  <rect width="320" height="180" rx="18" fill="#efe8df"/>
  <rect x="16" y="16" width="288" height="148" rx="14" fill="#fff"/>
  <text x="28" y="40" fill="#6b645c" font-family="ui-sans-serif, system-ui, sans-serif" font-size="10" font-weight="700" letter-spacing="1.4">AT A GLANCE</text>
  <rect x="28" y="56" width="18" height="92" rx="3" fill="#0b5cab"/>
  <path d="M48 70 C90 70, 90 52, 132 52" fill="none" stroke="#8ec4ea" stroke-width="16" stroke-opacity=".7"/>
  <path d="M48 110 C90 110, 90 98, 132 98" fill="none" stroke="#41b6e6" stroke-width="12" stroke-opacity=".55"/>
  <path d="M48 140 C90 140, 90 148, 132 148" fill="none" stroke="#082f5b" stroke-width="8" stroke-opacity=".35"/>
  <rect x="132" y="42" width="16" height="36" rx="3" fill="#0b5cab"/>
  <rect x="132" y="86" width="16" height="28" rx="3" fill="#41b6e6"/>
  <rect x="132" y="134" width="16" height="22" rx="3" fill="#082f5b"/>
  <rect x="196" y="36" width="88" height="18" rx="9" fill="#41b6e6"/>
  <rect x="196" y="62" width="72" height="10" rx="5" fill="#efe8df"/>
  <rect x="196" y="80" width="88" height="10" rx="5" fill="#efe8df"/>
  <rect x="196" y="98" width="60" height="10" rx="5" fill="#efe8df"/>
  <rect x="196" y="124" width="88" height="28" rx="8" fill="#f6f0e7"/>
</svg>
